<svg xmlns="http://www.w3.org/2000/svg" viewBox="0 0 1150 380" width="100%" height="100%">
  
  <!-- ВАША ОРИГІНАЛЬНА ІКОНКА (Без змін кольорів чи шляхів) -->
  <g id="logo-icon">
    <clipPath id="cl_3">
      <rect y="-0.00012207031" width="379" height="380"/>
    </clipPath>
    <g clip-path="url(#cl_3)">
      <path fill="#EDF6F9" transform="matrix(1 0 0 0.997375 -322 -306.194)" d="M343.039 449.982C380.491 462.107 411.258 472.624 426.094 513.695C438.16 547.099 430.536 565.976 415.728 596.299C409.744 608.259 403.956 620.316 398.366 632.466C393.297 627.972 388.405 623.281 383.702 618.405C347.714 580.853 334.962 543.316 335.988 492.061C342.196 493.894 352.32 496.581 358.016 498.851C358.157 542.101 365.211 561.478 392.079 594.985C397.887 584.774 406.746 568.449 409.445 557.306C413.188 541.85 407.923 522.446 399.592 509.185C383.895 484.203 363.953 477.651 337.123 471.317C338.194 464.967 340.029 455.877 342.553 450.132L343.039 449.982Z"/>
      <path fill="#34D399" transform="matrix(1 0 0 0.997375 -322 -306.194)" d="M681.292 447.904C682.396 454.771 684.317 462.717 685.623 469.813C675.67 472.059 667.47 474.233 658.232 478.718C630.737 492.069 607.289 523.41 614.435 555.178C616.711 565.296 626.7 587.33 632.601 596.4C652.236 564.983 667.521 537.305 666.172 498.549L687.135 493.604C686.953 545.921 670.434 588.667 633.014 625.855C630.885 627.963 628.718 630.033 626.515 632.063C620.604 619.881 614.611 607.74 608.535 595.64C594.16 566.791 586.455 550.057 597.482 517.172C605.915 492.024 622.822 473.424 646.73 461.939C650.266 460.241 658.139 456.766 661.165 455.006C667.67 452.179 674.538 450.061 681.292 447.904Z"/>
      <path fill="#34D399" transform="matrix(1 0 0 0.997375 -322 -306.194)" d="M342.553 450.132C344.67 434.511 362.221 403.487 371.316 390.561C379.664 394.854 398.153 408.417 406.814 414.219C421.912 424.334 438.231 434.293 452.874 444.661L512.407 410.185C532.169 420.543 553.342 433.199 572.62 444.496C577.431 448.529 584.35 453.114 589.638 456.641C583.116 460.866 576.635 465.153 570.195 469.502C563.815 466.304 552.896 458.863 546.575 454.67C535.359 447.231 523.269 439.497 512.303 431.794C496.384 443.167 479.426 453.379 463.085 464.154C460.157 466.084 457.169 467.933 454.152 469.723C431.451 452.968 401.196 435.282 377.102 419.287C371.962 431.258 367.103 442.648 362.547 454.847C357.986 453.285 348.1 449.701 343.819 449.237L343.039 449.982L342.553 450.132Z"/>
      <path fill="#34D399" transform="matrix(1 0 0 0.997375 -322 -306.194)" d="M569.88 469.695C575.665 473.256 581.494 476.747 587.365 480.165C585.261 487.58 583.274 495.146 581.247 502.593C577.071 517.068 573.153 532.636 568.599 546.902C564.094 549.649 555.569 553.704 550.514 556.19C538.381 562.229 526.078 567.923 513.621 573.263C495.94 565.515 472.16 555.903 455.448 547.435C453.266 541.007 450.97 531.455 449.083 524.562L437.161 480.583C442.469 476.968 448.692 473.305 454.205 469.969C456.38 474.078 459.49 488.057 460.752 493.201L470.108 531.408C484.137 538.096 499.803 544.599 514.092 550.957C527.044 544.521 542.232 537.028 554.718 529.92C559.665 510.68 564.244 488.52 569.88 469.695Z"/>
      <path fill="#EDF6F9" transform="matrix(1 0 0 0.997375 -322 -306.194)" d="M542.801 585.619C542.825 585.642 542.854 585.661 542.874 585.688C544.828 588.372 543.683 645.06 543.678 652.997C552.469 649.49 561.304 646.772 570.295 642.962C583.109 637.533 592.569 631.96 604.548 624.845C608.081 627.502 615.874 635.399 619.295 638.731C612.912 643.836 608.262 646.865 601.366 650.961C574.726 666.089 552.401 674.082 521.921 676.653L521.667 590.725C528.481 589.601 536.138 587.44 542.801 585.619Z"/>
      <path fill="#34D399" transform="matrix(1 0 0 0.997375 -322 -306.194)" d="M480.071 583.29C486.2 584.721 495.845 588.196 502.032 590.252C501.776 619.135 501.692 648.018 501.779 676.902C470.488 672.588 453.104 667.696 425.308 652.139C418.318 647.915 412.035 643.408 405.514 638.533L419.134 624.222C440.175 637.848 456.618 644.648 480.446 652.609C480.474 630.003 480.829 605.786 480.071 583.29Z"/>
      <path fill="#EDF6F9" transform="matrix(1 0 0 0.997375 -322 -306.194)" d="M572.62 444.496C579.357 441.228 592.66 431.951 599.498 427.467C617.88 415.326 636.326 403.281 654.833 391.331C665.481 406.196 678.005 430.134 681.292 447.904C674.538 450.061 667.67 452.179 661.165 455.006C656.321 441.285 653.295 433.96 647.288 420.865C628.15 432.916 608.933 444.842 589.638 456.641C584.35 453.114 577.431 448.529 572.62 444.496Z"/>
      <path fill="#EDF6F9" transform="matrix(1 0 0 0.997375 -322 -306.194)" d="M519.495 318.786C524.033 322.277 537.595 343.977 541.49 350.105L541.406 376.591C559.909 382.847 574.02 389.723 589.713 401.595L582.752 405.862C578.474 408.489 574.551 410.848 570.129 413.272C553.367 404.975 536.46 396.973 519.417 389.27C518.334 368.129 518.864 340.163 519.495 318.786Z"/>
      <path fill="#34D399" transform="matrix(1 0 0 0.997375 -322 -306.194)" d="M504.317 319.314C506.109 324.593 504.815 380.384 504.745 389.558L452.556 413.551C449.307 411.46 445.476 408.578 442.271 406.304L434.83 401.518C451.436 388.786 464.163 383.941 483.046 376.44C482.535 368.08 482.637 358.049 482.944 349.645C488.423 340.912 498.042 327.619 504.317 319.314Z"/>
    </g>
  </g>

  <!-- ТЕКСТОВИЙ БЛОК (Зміщений вправо) -->
  <g transform="translate(420, 0)">
    <!-- Перший рядок -->
    <text x="0" y="190" font-family="system-ui, -apple-system, sans-serif" font-weight="900" font-size="140" fill="#EDF6F9" letter-spacing="-2">
      PREDICT
    </text>
    
    <!-- Другий рядок -->
    <text x="8" y="295" font-family="system-ui, -apple-system, sans-serif" font-weight="800" font-size="75" fill="#34D399" letter-spacing="14">
      THE WIN
    </text>
  </g>

</svg>
